<svg width="534" height="521" viewBox="0 0 534 521" fill="none" xmlns="http://www.w3.org/2000/svg">
<path d="M340.594 116.789H312.181V359.327C312.181 363.133 311.432 366.901 309.978 370.417C308.523 373.932 306.391 377.127 303.704 379.817C301.017 382.508 297.826 384.643 294.315 386.099C290.803 387.555 287.04 388.305 283.239 388.305H66.0114V388.582C66.0113 392.387 66.7599 396.155 68.2143 399.671C69.6688 403.187 71.8006 406.381 74.488 409.072C77.1754 411.763 80.3659 413.897 83.8772 415.353C87.3885 416.81 91.1519 417.559 94.9525 417.559H340.593C344.394 417.559 348.158 416.81 351.669 415.353C355.18 413.897 358.371 411.763 361.058 409.072C363.745 406.381 365.877 403.187 367.332 399.671C368.786 396.155 369.535 392.387 369.535 388.582V145.767C369.535 138.081 366.486 130.711 361.058 125.277C355.63 119.842 348.269 116.789 340.594 116.789Z" fill="#F2F2F2"/>
<path d="M260.501 83.7975C261.212 84.8775 262.15 85.7897 263.249 86.4712C264.348 87.1526 265.581 87.587 266.864 87.7442C268.147 87.9015 269.449 87.7778 270.679 87.3818C271.909 86.9858 273.039 86.3269 273.99 85.4507L314.533 103.765L322.35 93.7822L274.038 72.3827C272.445 70.8895 270.362 70.0329 268.181 69.9752C266 69.9175 263.874 70.6628 262.205 72.0699C260.537 73.4769 259.442 75.4479 259.127 77.6093C258.813 79.7708 259.302 81.9726 260.501 83.7975Z" fill="#A0616A"/>
<path d="M434.493 95.2173L438.514 118.032C438.701 119.096 438.665 120.188 438.406 121.237C438.147 122.287 437.672 123.27 437.011 124.125C436.35 124.979 435.518 125.686 434.569 126.2C433.619 126.714 432.572 127.023 431.496 127.107L363.17 132.487L282.857 96.498L292.449 78.2657L362.169 100.371L434.493 95.2173Z" fill="#A4BCFD"/>
<path d="M274.582 78.8668H28.9412C12.9574 78.8668 0 91.8404 0 107.844V350.659C0 366.663 12.9574 379.637 28.9412 379.637H274.582C290.566 379.637 303.523 366.663 303.523 350.659V107.844C303.523 91.8404 290.566 78.8668 274.582 78.8668Z" fill="#F2F2F2"/>
<path d="M28.9414 84.8259C25.9224 84.8259 22.9329 85.4213 20.1437 86.5781C17.3545 87.7348 14.8202 89.4303 12.6855 91.5678C10.5507 93.7052 8.85729 96.2427 7.70197 99.0354C6.54665 101.828 5.95202 104.821 5.95203 107.844V350.66C5.95203 356.764 8.37411 362.619 12.6855 366.936C16.9968 371.252 22.8443 373.678 28.9414 373.678H185.715C200.405 373.678 214.95 370.781 228.521 365.152C242.092 359.524 254.423 351.275 264.81 340.875C275.196 330.475 283.436 318.129 289.057 304.541C294.678 290.953 297.571 276.39 297.571 261.682V107.844C297.571 104.821 296.977 101.828 295.821 99.0354C294.666 96.2427 292.973 93.7052 290.838 91.5678C288.703 89.4303 286.169 87.7348 283.38 86.5781C280.59 85.4213 277.601 84.8259 274.582 84.8259H28.9414Z" fill="white"/>
<path d="M220.43 158.516H82.5565C81.2914 158.516 80.0781 158.013 79.1835 157.117C78.2889 156.222 77.7864 155.007 77.7864 153.74C77.7864 152.474 78.2889 151.259 79.1835 150.363C80.0781 149.467 81.2914 148.964 82.5565 148.964H220.43C221.695 148.964 222.908 149.467 223.803 150.363C224.697 151.259 225.2 152.474 225.2 153.74C225.2 155.007 224.697 156.222 223.803 157.117C222.908 158.013 221.695 158.516 220.43 158.516Z" fill="#F2F2F2"/>
<path d="M220.43 260.366H82.5565C81.2914 260.366 80.0781 259.862 79.1835 258.967C78.2889 258.071 77.7864 256.856 77.7864 255.589C77.7864 254.323 78.2889 253.108 79.1835 252.212C80.0781 251.317 81.2914 250.813 82.5565 250.813H220.43C221.695 250.813 222.908 251.317 223.803 252.212C224.697 253.108 225.2 254.323 225.2 255.589C225.2 256.856 224.697 258.071 223.803 258.967C222.908 259.862 221.695 260.366 220.43 260.366Z" fill="#F2F2F2"/>
<path d="M276.417 209.474H26.5692C25.3041 209.474 24.0908 208.971 23.1962 208.075C22.3016 207.18 21.7991 205.965 21.7991 204.698C21.7991 203.431 22.3016 202.217 23.1962 201.321C24.0908 200.425 25.3041 199.922 26.5692 199.922H276.417C277.682 199.922 278.895 200.425 279.79 201.321C280.685 202.217 281.187 203.431 281.187 204.698C281.187 205.965 280.685 207.18 279.79 208.075C278.895 208.971 277.682 209.474 276.417 209.474Z" fill="#F2F2F2"/>
<path d="M425.86 195.775L400.971 248.866L496.717 239.157L476.73 188.19L425.86 195.775Z" fill="#A0616A"/>
<path d="M448.12 500.925L439.042 500.848L435.024 464.972L448.421 465.086L448.12 500.925Z" fill="#A0616A"/>
<path d="M419.043 515.378C419.035 516.455 419.454 517.492 420.208 518.26C420.962 519.029 421.99 519.466 423.066 519.477L441.115 519.628L444.275 513.215L445.435 519.66L452.246 519.722L450.526 496.734L448.157 496.576L438.492 495.909L435.374 495.7L435.32 502.204L420.821 512.05C420.278 512.42 419.832 512.915 419.523 513.495C419.213 514.074 419.048 514.72 419.043 515.378Z" fill="#2F2E41"/>
<path d="M347.659 500.966L339.004 498.221L345.69 462.747L358.464 466.796L347.659 500.966Z" fill="#A0616A"/>
<path d="M315.623 506.227C315.299 507.254 315.396 508.369 315.891 509.325C316.387 510.282 317.241 511.002 318.267 511.329L335.475 516.783L340.377 511.582L339.595 518.085L346.086 520.147L351.188 497.668L348.97 496.82L339.928 493.339L337.009 492.222L335.048 498.423L318.3 503.57C317.672 503.763 317.101 504.105 316.635 504.568C316.168 505.031 315.821 505.6 315.623 506.227Z" fill="#2F2E41"/>
<path d="M492.356 224.227L405.3 240.198C405.3 240.198 391.336 250.656 395.072 254.402C398.807 258.147 399.386 257.567 396.932 260.024C394.478 262.481 389.172 265.766 389.12 267.916C389.068 270.066 350.11 366.497 350.11 366.497C350.11 366.497 354.439 364.33 351.192 367.581C347.946 370.831 347.946 373.517 347.946 373.517L332.796 475.931L357.4 477.381L381.493 384.012L435.231 296.786C435.231 296.786 440.564 374.57 440.787 379.743C441.011 384.917 444.257 378.416 441.011 384.917C437.764 391.418 435.6 387.084 437.764 391.418C439.929 395.752 429.968 483.986 429.968 483.986H452.426L500.592 301.101C500.592 301.101 517.729 248.816 492.356 224.227Z" fill="#2F2E41"/>
<path d="M466.71 77.9412L431.838 74.3133L422.803 86.0577L412.278 91.6705C407.824 94.0457 404.147 97.6553 401.688 102.067C399.229 106.48 398.091 111.508 398.41 116.55L410.711 188.19C410.711 188.19 400.321 211.615 407.464 217.445C414.607 223.275 401.941 237.714 417.204 230.447C432.466 223.18 498.365 231.53 498.365 231.53L484.297 191.441L494.806 152.047L495.963 119.016C496.179 112.844 494.35 106.774 490.76 101.751C487.17 96.7286 482.021 93.0363 476.117 91.2497L474.647 90.8051L466.71 77.9412Z" fill="#A4BCFD"/>
<path d="M514.719 51.174C514.948 61.0154 511.274 70.5448 505.997 78.9149C504.429 74.0286 501.611 69.5813 498.671 65.342C500.153 74.513 498.574 83.9173 494.18 92.0996C494.025 92.2106 493.865 92.3136 493.699 92.4083C489.398 94.999 483.944 96.0483 479.291 94.1772C488.905 83.8008 490.129 66.6087 482.069 54.97C479.787 51.6674 476.835 48.7466 475.422 44.9883C473.19 38.9916 475.335 32.3891 476.689 26.137C477.954 20.3181 478.176 13.3936 474.277 9.12915C474.693 8.5332 475.26 8.05881 475.92 7.75462C476.58 7.45042 477.309 7.32735 478.032 7.398C480.436 7.738 482.186 9.83009 483.3 11.9848C484.414 14.1395 485.149 16.5276 486.703 18.3887C489.579 21.8721 494.477 22.6957 498.605 24.5316C508.601 28.9898 514.48 40.2231 514.719 51.174Z" fill="#2F2E41"/>
<path d="M516.877 279.27C522.256 279.27 526.617 274.904 526.617 269.519C526.617 264.133 522.256 259.767 516.877 259.767C511.498 259.767 507.138 264.133 507.138 269.519C507.138 274.904 511.498 279.27 516.877 279.27Z" fill="#A4BCFD"/>
<path d="M430.573 45.547C431.145 43.5452 427.207 55.7822 429.107 56.0031C437.761 56.9971 449.64 62.1717 455.667 64.5857C455.938 64.5541 456.21 64.5226 456.473 64.4831C457.12 64.4121 457.751 64.3096 458.373 64.1913C472.407 61.5326 477.804 39.9478 477.804 39.7506C477.804 38.7802 475.478 12.1289 471.814 11.7345C470.852 11.6299 469.884 11.5772 468.916 11.5767H459.824C457.942 11.1707 456.035 10.894 454.116 10.7483H454.1C435.795 9.35194 421.362 20.5229 422.711 34.1158C422.719 34.1315 422.735 34.1473 422.743 34.1631C423.134 34.7469 423.477 35.2992 423.78 35.8277C424.076 36.3247 424.323 36.7981 424.539 37.2477C426.207 40.719 421.918 45.0868 424.762 45.9021C428.545 46.9864 414.815 82.6258 429.785 82.6258C422.503 84.6988 428.998 51.0694 430.573 45.547Z" fill="#2F2E41"/>
<path d="M446.914 66.4588C458.804 66.4588 468.442 56.8084 468.442 44.9041C468.442 32.9997 458.804 23.3493 446.914 23.3493C435.025 23.3493 425.386 32.9997 425.386 44.9041C425.386 56.8084 435.025 66.4588 446.914 66.4588Z" fill="#A0616A"/>
<path d="M422.711 35.2912C423.07 35.4805 423.421 35.6541 423.78 35.8277C424.156 36.0091 424.531 36.1906 424.906 36.3562C432.115 39.6302 437.982 39.9931 441.543 35.2912C441.638 32.8172 442.193 30.3826 443.179 28.1121C443.005 30.6494 443.673 33.1732 445.079 35.2912H452.248C459.632 40.1982 463.424 40.711 458.299 56.8205C456.87 61.3094 451.188 87.4302 453.423 91.3038C454.07 91.2327 460.949 62.6224 461.572 62.5041C475.606 59.8455 484.523 36.6954 483.381 35.3859C483.387 31.6618 482.532 27.9869 480.883 24.6488C478.796 20.4197 475.544 16.8772 471.511 14.4403C469.106 13.2731 466.6 12.3303 464.022 11.6239C463.959 11.6081 463.903 11.5923 463.839 11.5766C463.049 11.3636 462.242 11.1663 461.436 11.0007C459.77 10.6485 458.086 10.393 456.391 10.2354C456.271 10.2275 456.151 10.2196 456.04 10.2196C455.363 10.2212 454.699 10.4037 454.116 10.7482C454.108 10.7482 454.108 10.7561 454.1 10.7561C453.683 10.9998 453.32 11.3243 453.03 11.7107C452.52 12.3607 452.244 13.1641 452.248 13.9906H444.265C443.969 13.9906 443.674 13.9985 443.379 14.0143C438.051 14.1966 432.982 16.363 429.166 20.0896C425.349 23.8162 423.059 28.8347 422.743 34.1631C422.719 34.5417 422.711 34.9125 422.711 35.2912Z" fill="#2F2E41"/>
<path d="M469.78 28.4007C477.613 28.4007 483.963 22.043 483.963 14.2004C483.963 6.35772 477.613 0 469.78 0C461.947 0 455.598 6.35772 455.598 14.2004C455.598 22.043 461.947 28.4007 469.78 28.4007Z" fill="#2F2E41"/>
<path d="M516.987 273.54C517.679 272.447 518.126 271.217 518.296 269.934C518.467 268.651 518.357 267.347 517.974 266.11C517.592 264.874 516.946 263.736 516.081 262.775C515.216 261.813 514.153 261.051 512.965 260.542L513.035 216.008L500.737 212.96L501.04 265.854C500.332 267.92 500.406 270.174 501.247 272.19C502.088 274.205 503.638 275.841 505.604 276.789C507.569 277.736 509.814 277.929 511.912 277.33C514.01 276.731 515.815 275.382 516.987 273.54Z" fill="#A0616A"/>
<path d="M456.088 109.951L475.225 96.9287C476.118 96.3212 477.127 95.9074 478.189 95.7137C479.251 95.52 480.342 95.5508 481.391 95.8042C482.441 96.0575 483.426 96.5277 484.283 97.1847C485.14 97.8416 485.851 98.6708 486.369 99.6189L519.27 159.817L519.396 247.917L498.855 246.628L490.422 173.893L456.088 109.951Z" fill="#A4BCFD"/>
<path d="M309.112 309.749H104.585C100.137 309.749 95.8703 311.518 92.7247 314.668C89.5791 317.817 87.8119 322.089 87.8119 326.543C87.8119 330.997 89.5791 335.269 92.7247 338.419C95.8703 341.568 100.137 343.337 104.585 343.337H309.112C313.561 343.337 317.827 341.568 320.973 338.419C324.118 335.269 325.885 330.997 325.885 326.543C325.885 322.089 324.118 317.817 320.973 314.668C317.827 311.518 313.561 309.749 309.112 309.749Z" fill="white"/>
<path d="M309.112 344.421H104.585C99.8497 344.421 95.308 342.537 91.9595 339.185C88.6109 335.832 86.7297 331.285 86.7297 326.543C86.7297 321.802 88.6109 317.254 91.9595 313.902C95.308 310.549 99.8497 308.665 104.585 308.665H309.112C313.848 308.665 318.389 310.549 321.738 313.902C325.086 317.254 326.967 321.802 326.967 326.543C326.967 331.285 325.086 335.832 321.738 339.185C318.389 342.537 313.848 344.421 309.112 344.421ZM104.585 310.832C100.424 310.832 96.4326 312.488 93.4899 315.434C90.5472 318.38 88.894 322.376 88.894 326.543C88.894 330.71 90.5472 334.706 93.4899 337.652C96.4326 340.599 100.424 342.254 104.585 342.254H309.112C313.274 342.254 317.265 340.599 320.207 337.652C323.15 334.706 324.803 330.71 324.803 326.543C324.803 322.376 323.15 318.38 320.207 315.434C317.265 312.488 313.274 310.832 309.112 310.832H104.585Z" fill="#A4BCFD"/>
<path d="M321.172 383.04H230.914C229.649 383.04 228.435 382.537 227.541 381.641C226.646 380.745 226.144 379.531 226.144 378.264C226.144 376.997 226.646 375.782 227.541 374.887C228.435 373.991 229.649 373.488 230.914 373.488H321.172C322.437 373.488 323.651 373.991 324.545 374.887C325.44 375.782 325.942 376.997 325.942 378.264C325.942 379.531 325.44 380.745 324.545 381.641C323.651 382.537 322.437 383.04 321.172 383.04Z" fill="#A4BCFD"/>
</svg>
