<svg width="25" height="24" viewBox="0 0 25 24" fill="none" xmlns="http://www.w3.org/2000/svg">
<g clip-path="url(#clip0_63_179)">
<path d="M20.97 21.53C21.0387 21.6037 21.1215 21.6628 21.2135 21.7038C21.3055 21.7448 21.4048 21.7668 21.5055 21.7686C21.6062 21.7704 21.7062 21.7518 21.7996 21.7141C21.893 21.6764 21.9778 21.6202 22.0491 21.549C22.1203 21.4778 22.1764 21.393 22.2141 21.2996C22.2519 21.2062 22.2704 21.1062 22.2686 21.0055C22.2668 20.9048 22.2448 20.8055 22.2038 20.7135C22.1628 20.6215 22.1037 20.5387 22.03 20.47L20.97 21.53ZM4.54602 13.61C4.15148 11.9278 4.15148 10.1772 4.54602 8.49499L3.08602 8.15299C2.63864 10.0604 2.63864 12.0455 3.08602 13.953L4.54602 13.61ZM18.559 8.49499C18.9536 10.1772 18.9536 11.9278 18.559 13.61L20.019 13.952C20.4664 12.0445 20.4664 10.0604 20.019 8.15299L18.559 8.49499ZM14.11 18.059C12.4282 18.4534 10.6769 18.4534 8.99502 18.059L8.65302 19.519C10.5604 19.967 12.5456 19.967 14.453 19.519L14.11 18.059ZM9.00002 4.04599C10.6822 3.65145 12.4328 3.65145 14.115 4.04599L14.457 2.58599C12.5496 2.13861 10.5645 2.13861 8.65702 2.58599L9.00002 4.04599ZM9.00002 18.059C7.91746 17.8052 6.92728 17.2542 6.14105 16.468C5.35482 15.6817 4.80378 14.6916 4.55002 13.609L3.09002 13.952C3.40723 15.306 4.09611 16.5446 5.07912 17.5283C6.06213 18.512 7.30023 19.2018 8.65402 19.52L9.00002 18.059ZM14.457 19.519C15.8114 19.2015 17.0503 18.5122 18.034 17.5286C19.0178 16.5451 19.7073 15.3063 20.025 13.952L18.565 13.61C18.3113 14.6926 17.7602 15.6827 16.974 16.469C16.1878 17.2552 15.1976 17.8062 14.115 18.06L14.457 19.52V19.519ZM14.11 4.04599C15.1931 4.30006 16.1836 4.8517 16.9699 5.63868C17.7562 6.42567 18.3069 7.4167 18.56 8.49999L20.02 8.15699C19.7023 6.80264 19.0128 5.56391 18.029 4.58034C17.0453 3.59677 15.8064 2.90743 14.452 2.58999L14.11 4.04999V4.04599ZM8.65302 2.58599C7.2988 2.9036 6.06016 3.59301 5.0766 4.57657C4.09304 5.56013 3.40363 6.79877 3.08602 8.15299L4.54602 8.49499C4.80009 7.41193 5.35173 6.42139 6.13871 5.63511C6.9257 4.84883 7.91673 4.29909 9.00002 4.04599L8.65702 2.58599H8.65302ZM17.305 17.866L20.97 21.53L22.03 20.47L18.365 16.805L17.305 17.866Z" fill="#1E1E1E"/>
</g>
<defs>
<clipPath id="clip0_63_179">
<rect width="24" height="24" fill="white" transform="translate(0.5)"/>
</clipPath>
</defs>
</svg>
